<svg width="144" height="41" viewBox="0 0 144 41" fill="none" xmlns="http://www.w3.org/2000/svg">
<path d="M60.4454 30.8387C63.7579 30.8387 67.3342 29.0505 67.3342 24.8C67.3342 21.7807 65.3702 20.4029 62.2043 19.289C60.123 18.5561 58.9211 17.9112 58.9211 16.8266C58.9211 15.8006 59.9764 15.1557 61.1783 15.1557C62.4095 15.1557 63.4648 15.6247 64.6373 16.6507L67.3928 13.3969C65.7513 12.0777 63.582 11.1104 60.8851 11.1104C57.3088 11.1104 53.7912 13.5727 53.7912 17.2077C53.7912 20.2563 56.3122 21.7513 59.097 22.6308C60.9438 23.217 62.0577 23.7154 62.0577 25.0638C62.0577 26.2364 60.8265 26.7933 59.6833 26.7933C58.4521 26.7933 56.9864 26.3536 55.6086 24.7414L52.7065 28.0245C54.9344 30.1351 57.5727 30.8387 60.4454 30.8387Z" fill="white"/>
<path d="M72.7508 15.0384C74.1578 15.0384 75.2718 13.9538 75.2718 12.6054C75.2718 11.2862 74.1578 10.2016 72.7508 10.2016C71.373 10.2016 70.2298 11.2862 70.2298 12.6054C70.2298 13.9538 71.373 15.0384 72.7508 15.0384ZM70.4643 30.399H75.0959V16.7093H70.4643V30.399Z" fill="white"/>
<path d="M87.323 16.3576C85.5056 16.3576 84.1571 17.0611 83.1311 18.175L82.6035 16.7093H78.5288V30.399H83.1604V22.9532C83.3363 20.9892 84.4209 20.227 85.5056 20.227C86.9713 20.227 87.6455 21.2237 87.6455 23.1291V30.399H92.2771V21.722C92.2771 17.6767 89.5802 16.3576 87.323 16.3576Z" fill="white"/>
<path d="M105.517 16.7093L105.018 18.2337C104.022 17.1197 102.615 16.3576 100.651 16.3576C97.1036 16.3576 94.3481 18.9372 94.3481 23.5395C94.3481 28.1125 97.1036 30.6921 100.651 30.6921C102.585 30.6921 103.992 29.9592 104.989 28.8746L105.487 30.399H109.298V16.7093H105.517ZM101.999 26.8227C100.328 26.8227 99.0676 25.5328 99.0676 23.5395C99.0676 21.5168 100.328 20.227 101.999 20.227C103.729 20.227 104.989 21.5168 104.989 23.5395C104.989 25.5328 103.729 26.8227 101.999 26.8227Z" fill="white"/>
<path d="M119.019 30.7507C122.508 30.7507 125.908 29.4023 125.908 23.9206V16.7093H121.276V24.1258C121.276 25.7674 120.602 26.8813 119.019 26.8813C117.436 26.8813 116.762 25.7674 116.762 24.1258V16.7093H112.16V23.9206C112.16 29.4023 115.531 30.7507 119.019 30.7507Z" fill="white"/>
<path d="M143.258 30.399L137.923 23.2463L142.613 16.7093H137.6L135.255 20.3736L132.91 16.7093H127.897L132.588 23.2463L127.282 30.399H132.412L135.284 26.1777L138.128 30.399H143.258Z" fill="white"/>
<path fill-rule="evenodd" clip-rule="evenodd" d="M23.3319 1.21177C21.5237 -0.403924 18.7905 -0.403925 16.9823 1.21177L14.8149 3.14838C14.0102 3.86747 12.9851 4.29206 11.9076 4.35264L9.00565 4.51579C6.58459 4.65191 4.65191 6.58459 4.51579 9.00565L4.35264 11.9076C4.29206 12.9851 3.86747 14.0102 3.14838 14.8149L1.21177 16.9823C-0.403924 18.7905 -0.403925 21.5237 1.21177 23.3319L3.14838 25.4992C3.86747 26.304 4.29206 27.329 4.35264 28.4066L4.51579 31.3085C4.65191 33.7296 6.58459 35.6622 9.00565 35.7984L11.9076 35.9615C12.9851 36.0221 14.0102 36.4467 14.8149 37.1658L16.9823 39.1024C18.7905 40.7181 21.5237 40.7181 23.3319 39.1024L25.4992 37.1658C26.304 36.4467 27.329 36.0221 28.4066 35.9615L31.3085 35.7984C33.7296 35.6622 35.6622 33.7296 35.7984 31.3085L35.9615 28.4066C36.0221 27.329 36.4467 26.304 37.1658 25.4992L39.1024 23.3319C40.7181 21.5237 40.7181 18.7905 39.1024 16.9823L37.1658 14.8149C36.4467 14.0102 36.0221 12.9851 35.9615 11.9076L35.7984 9.00565C35.6622 6.58459 33.7296 4.65191 31.3085 4.51579L28.4066 4.35264C27.329 4.29206 26.304 3.86747 25.4992 3.14838L23.3319 1.21177ZM20.157 30.3674C25.7961 30.3674 30.3674 25.7961 30.3674 20.1571C30.3674 14.518 25.7961 9.9467 20.157 9.9467C14.518 9.9467 9.94667 14.518 9.94667 20.1571C9.94667 25.7961 14.518 30.3674 20.157 30.3674Z" fill="white"/>
</svg>
