<svg width="199" height="56" viewBox="0 0 199 56" fill="none" xmlns="http://www.w3.org/2000/svg">
<path d="M83.6928 42.6993C88.2793 42.6993 93.231 40.2234 93.231 34.3381C93.231 30.1575 90.5116 28.2499 86.1281 26.7075C83.2463 25.6928 81.5822 24.7999 81.5822 23.2981C81.5822 21.8775 83.0434 20.9846 84.7075 20.9846C86.4122 20.9846 87.8734 21.634 89.4969 23.0546L93.3122 18.5493C91.0393 16.7228 88.0357 15.3834 84.3016 15.3834C79.3499 15.3834 74.4793 18.7928 74.4793 23.8258C74.4793 28.0469 77.9699 30.1169 81.8258 31.3346C84.3828 32.1463 85.9252 32.8363 85.9252 34.7034C85.9252 36.3269 84.2205 37.0981 82.6375 37.0981C80.9328 37.0981 78.9034 36.4893 76.9958 34.2569L72.9775 38.8028C76.0622 41.7251 79.7152 42.6993 83.6928 42.6993Z" fill="black"/>
<path d="M100.731 20.8222C102.679 20.8222 104.221 19.3205 104.221 17.4534C104.221 15.6269 102.679 14.1252 100.731 14.1252C98.8232 14.1252 97.2402 15.6269 97.2402 17.4534C97.2402 19.3205 98.8232 20.8222 100.731 20.8222ZM97.5649 42.0904H103.978V23.1358H97.5649V42.0904Z" fill="black"/>
<path d="M120.908 22.6487C118.391 22.6487 116.524 23.6228 115.103 25.1652L114.373 23.1358H108.731V42.0904H115.144V31.781C115.388 29.0616 116.889 28.0063 118.391 28.0063C120.421 28.0063 121.354 29.3863 121.354 32.0246V42.0904H127.767V30.0763C127.767 24.4752 124.033 22.6487 120.908 22.6487Z" fill="black"/>
<path d="M146.099 23.1358L145.409 25.2463C144.029 23.704 142.08 22.6487 139.361 22.6487C134.45 22.6487 130.634 26.2205 130.634 32.5928C130.634 38.9246 134.45 42.4963 139.361 42.4963C142.04 42.4963 143.988 41.4816 145.368 39.9798L146.058 42.0904H151.334V23.1358H146.099ZM141.228 37.1387C138.914 37.1387 137.169 35.3528 137.169 32.5928C137.169 29.7922 138.914 28.0063 141.228 28.0063C143.623 28.0063 145.368 29.7922 145.368 32.5928C145.368 35.3528 143.623 37.1387 141.228 37.1387Z" fill="black"/>
<path d="M164.794 42.5775C169.624 42.5775 174.332 40.7104 174.332 33.1204V23.1358H167.919V33.4046C167.919 35.6775 166.986 37.2199 164.794 37.2199C162.602 37.2199 161.669 35.6775 161.669 33.4046V23.1358H155.297V33.1204C155.297 40.7104 159.964 42.5775 164.794 42.5775Z" fill="black"/>
<path d="M198.355 42.0904L190.968 32.1869L197.462 23.1358H190.521L187.274 28.2093L184.027 23.1358H177.087L183.581 32.1869L176.234 42.0904H183.337L187.315 36.2457L191.252 42.0904H198.355Z" fill="black"/>
<path fill-rule="evenodd" clip-rule="evenodd" d="M32.3054 1.67782C29.8017 -0.559274 26.0173 -0.559275 23.5137 1.67782L20.5128 4.35925C19.3985 5.35491 17.9792 5.94279 16.4873 6.02667L12.4692 6.25257C9.11704 6.44104 6.44104 9.11703 6.25258 12.4692L6.02667 16.4873C5.94279 17.9792 5.35491 19.3985 4.35925 20.5128L1.67782 23.5137C-0.559274 26.0173 -0.559275 29.8017 1.67782 32.3054L4.35925 35.3063C5.35491 36.4205 5.94279 37.8398 6.02667 39.3318L6.25257 43.3498C6.44104 46.702 9.11703 49.378 12.4692 49.5664L16.4873 49.7923C17.9792 49.8762 19.3985 50.4641 20.5128 51.4598L23.5137 54.1412C26.0173 56.3783 29.8017 56.3783 32.3054 54.1412L35.3063 51.4598C36.4205 50.4641 37.8398 49.8762 39.3318 49.7923L43.3498 49.5664C46.702 49.378 49.378 46.702 49.5664 43.3498L49.7923 39.3318C49.8762 37.8398 50.4641 36.4205 51.4598 35.3063L54.1412 32.3054C56.3783 29.8017 56.3783 26.0173 54.1412 23.5137L51.4598 20.5128C50.4641 19.3985 49.8762 17.9792 49.7923 16.4873L49.5664 12.4692C49.378 9.11704 46.702 6.44104 43.3498 6.25257L39.3318 6.02667C37.8398 5.94279 36.4205 5.35491 35.3063 4.35925L32.3054 1.67782ZM27.9095 42.0468C35.7173 42.0468 42.0468 35.7173 42.0468 27.9095C42.0468 20.1017 35.7173 13.7722 27.9095 13.7722C20.1017 13.7722 13.7722 20.1017 13.7722 27.9095C13.7722 35.7173 20.1017 42.0468 27.9095 42.0468Z" fill="#DD9855"/>
</svg>
