<svg width="30" height="30" viewBox="0 0 30 30" fill="none" xmlns="http://www.w3.org/2000/svg">
<path d="M5 7.5C5 7.16848 5.1317 6.85054 5.36612 6.61612C5.60054 6.3817 5.91848 6.25 6.25 6.25H23.75C24.0815 6.25 24.3995 6.3817 24.6339 6.61612C24.8683 6.85054 25 7.16848 25 7.5C25 7.83152 24.8683 8.14946 24.6339 8.38388C24.3995 8.6183 24.0815 8.75 23.75 8.75H6.25C5.91848 8.75 5.60054 8.6183 5.36612 8.38388C5.1317 8.14946 5 7.83152 5 7.5ZM5 22.5C5 22.1685 5.1317 21.8505 5.36612 21.6161C5.60054 21.3817 5.91848 21.25 6.25 21.25H23.75C24.0815 21.25 24.3995 21.3817 24.6339 21.6161C24.8683 21.8505 25 22.1685 25 22.5C25 22.8315 24.8683 23.1495 24.6339 23.3839C24.3995 23.6183 24.0815 23.75 23.75 23.75H6.25C5.91848 23.75 5.60054 23.6183 5.36612 23.3839C5.1317 23.1495 5 22.8315 5 22.5ZM13.75 13.75C13.4185 13.75 13.1005 13.8817 12.8661 14.1161C12.6317 14.3505 12.5 14.6685 12.5 15C12.5 15.3315 12.6317 15.6495 12.8661 15.8839C13.1005 16.1183 13.4185 16.25 13.75 16.25H23.75C24.0815 16.25 24.3995 16.1183 24.6339 15.8839C24.8683 15.6495 25 15.3315 25 15C25 14.6685 24.8683 14.3505 24.6339 14.1161C24.3995 13.8817 24.0815 13.75 23.75 13.75H13.75Z" fill="black"/>
</svg>
