<svg width="30" height="29" viewBox="0 0 30 29" fill="none" xmlns="http://www.w3.org/2000/svg">
<path d="M14.1243 1.01502C14.3695 0.359174 15.2972 0.359175 15.5424 1.01502L18.7694 9.645C18.8758 9.92952 19.1419 10.1229 19.4454 10.1362L28.6502 10.5384C29.3497 10.5689 29.6364 11.4512 29.0884 11.8871L21.878 17.6229C21.6403 17.812 21.5386 18.1249 21.6198 18.4177L24.0817 27.2962C24.2688 27.971 23.5183 28.5162 22.9344 28.1298L15.2512 23.0448C14.9979 22.8771 14.6689 22.8771 14.4156 23.0448L6.73232 28.1298C6.14842 28.5162 5.39791 27.971 5.58501 27.2962L8.04691 18.4177C8.12808 18.1249 8.02642 17.812 7.78869 17.6229L0.578287 11.8871C0.0303211 11.4512 0.31699 10.5689 1.01652 10.5384L10.2213 10.1362C10.5248 10.1229 10.7909 9.92952 10.8973 9.645L14.1243 1.01502Z" fill="#DD9855"/>
</svg>
